<svg width="1024" height="1024" viewBox="0 0 1024 1024" fill="none" xmlns="http://www.w3.org/2000/svg">
<g clip-path="url(#clip0_10728_11021)">
<rect width="1024" height="1024" rx="108" fill="url(#paint0_linear_10728_11021)"/>
<path d="M336.834 441.721C441.895 316.029 647.04 376.864 666.596 539.51C674.753 607.352 719.425 665.402 783.06 690.851C935.621 751.864 941.363 965.07 792.291 1033.57C730.112 1062.14 688.624 1122.33 684.13 1190.49C673.356 1353.89 471.76 1424.82 360.073 1304.51C313.487 1254.33 243.173 1233.48 176.761 1250.15C17.5422 1290.13 -112.794 1120.76 -32.7478 977.902C0.640129 918.315 -1.32815 845.238 -37.8792 787.387C-125.508 648.693 -4.46461 473.085 156.694 505.105C223.915 518.461 293.012 494.148 336.834 441.721Z" fill="#FFE28B"/>
<rect x="297.236" y="683.064" width="101.31" height="76.6673" rx="10.9525" transform="rotate(16.5175 297.236 683.064)" fill="#3A3A3A"/>
<rect x="305.799" y="654.185" width="101.31" height="16.4287" rx="8.21436" transform="rotate(16.5175 305.799 654.185)" fill="#3A3A3A"/>
<rect x="483.613" y="738.333" width="101.31" height="76.6673" rx="10.9525" transform="rotate(16.5175 483.613 738.333)" fill="#3A3A3A"/>
<rect x="492.177" y="709.454" width="101.31" height="16.4287" rx="8.21436" transform="rotate(16.5175 492.177 709.454)" fill="#3A3A3A"/>
<path d="M716.276 228.643C504.168 123.227 372.14 342.514 339.185 448.27C338.507 450.445 339.784 452.649 341.968 453.297L670.273 550.654C672.458 551.302 674.75 550.083 675.339 547.882C682.928 519.561 692.173 456.82 675.433 402.65C658.413 347.573 701.641 323.153 727.547 317.148C729.044 316.801 730.265 315.702 730.702 314.229L747.783 256.627C748.205 255.205 747.834 253.67 746.783 252.624C742.019 247.88 728.022 234.48 716.276 228.643Z" fill="#B5D3FF"/>
<mask id="mask0_10728_11021" style="mask-type:alpha" maskUnits="userSpaceOnUse" x="338" y="200" width="409" height="351">
<path d="M700.904 221.639C497.22 132.891 370.415 344.64 338.212 447.982C337.534 450.158 338.811 452.361 340.996 453.009L669.3 550.367C671.485 551.014 673.776 549.795 674.373 547.596C682.047 519.299 692.191 456.82 675.451 402.65C658.44 347.603 701.611 323.179 727.522 317.158C729.041 316.805 730.274 315.677 730.693 314.174L746.757 256.67C747.203 255.075 746.652 253.368 745.357 252.335L727.626 238.187C719.434 231.651 710.512 225.825 700.904 221.639Z" fill="#B5D3FF"/>
</mask>
<g mask="url(#mask0_10728_11021)">
<path d="M542.322 359.542C548.053 351.209 561.1 355.078 561.361 365.188C561.479 369.71 564.494 373.642 568.83 374.928C578.526 377.803 578.878 391.407 569.344 394.78C565.08 396.288 562.272 400.371 562.389 404.892C562.651 415.003 549.822 419.541 543.667 411.515C540.915 407.926 536.165 406.518 531.901 408.026C522.366 411.399 514.085 400.601 519.816 392.268C522.379 388.541 522.251 383.588 519.499 379.998C513.344 371.973 521.055 360.76 530.752 363.636C535.088 364.922 539.759 363.269 542.322 359.542Z" fill="#FFE28B"/>
<path d="M438.102 268.397C443.833 260.064 456.879 263.933 457.141 274.043C457.258 278.565 460.273 282.497 464.609 283.782C474.306 286.658 474.658 300.261 465.123 303.634C460.859 305.143 458.051 309.226 458.168 313.747C458.43 323.857 445.601 328.396 439.447 320.37C436.694 316.781 431.944 315.372 427.68 316.881C418.145 320.254 409.865 309.455 415.596 301.122C418.159 297.395 418.03 292.442 415.278 288.853C409.124 280.827 416.835 269.615 426.531 272.491C430.868 273.776 435.539 272.124 438.102 268.397Z" fill="#FFE28B"/>
<path d="M597.906 186.676C603.637 178.343 616.684 182.212 616.945 192.322C617.062 196.844 620.078 200.776 624.414 202.062C634.11 204.937 634.462 218.54 624.928 221.913C620.664 223.422 617.856 227.505 617.973 232.026C618.235 242.136 605.406 246.675 599.251 238.649C596.499 235.06 591.749 233.651 587.485 235.16C577.95 238.533 569.669 227.735 575.4 219.401C577.963 215.675 577.835 210.721 575.083 207.132C568.928 199.106 576.639 187.894 586.336 190.77C590.672 192.056 595.343 190.403 597.906 186.676Z" fill="#FFE28B"/>
<path d="M679.304 318.405C685.035 310.072 698.082 313.941 698.343 324.051C698.46 328.572 701.475 332.504 705.812 333.79C715.508 336.666 715.86 350.269 706.325 353.642C702.061 355.151 699.254 359.233 699.371 363.755C699.632 373.865 686.804 378.404 680.649 370.378C677.897 366.789 673.146 365.38 668.882 366.889C659.348 370.262 651.067 359.463 656.798 351.13C659.361 347.403 659.233 342.45 656.481 338.861C650.326 330.835 658.037 319.623 667.734 322.498C672.07 323.784 676.741 322.132 679.304 318.405Z" fill="#FFE28B"/>
<path d="M353.031 417.442C358.762 409.109 371.809 412.978 372.07 423.088C372.187 427.61 375.203 431.541 379.539 432.827C389.235 435.703 389.587 449.306 380.053 452.679C375.789 454.188 372.981 458.27 373.098 462.792C373.36 472.902 360.531 477.441 354.376 469.415C351.624 465.826 346.874 464.417 342.61 465.926C333.075 469.299 324.794 458.5 330.525 450.167C333.088 446.44 332.96 441.487 330.208 437.898C324.053 429.872 331.764 418.66 341.461 421.535C345.797 422.821 350.468 421.169 353.031 417.442Z" fill="#FFE28B"/>
<path d="M656.776 503.221C662.507 494.888 675.554 498.757 675.815 508.867C675.932 513.388 678.948 517.32 683.284 518.606C692.98 521.482 693.332 535.085 683.798 538.458C679.534 539.967 676.726 544.049 676.843 548.571C677.105 558.681 664.276 563.22 658.121 555.194C655.369 551.605 650.619 550.196 646.355 551.705C636.82 555.078 628.539 544.279 634.27 535.946C636.833 532.219 636.705 527.266 633.953 523.677C627.798 515.651 635.509 504.439 645.206 507.314C649.542 508.6 654.213 506.948 656.776 503.221Z" fill="#FFE28B"/>
</g>
<circle cx="759.284" cy="290.255" r="41.2574" transform="rotate(16.5175 759.284 290.255)" fill="url(#paint1_linear_10728_11021)"/>
<rect x="315.292" y="426.011" width="409.614" height="81.9228" rx="35.0687" transform="rotate(16.5175 315.292 426.011)" fill="#E5F0FF"/>
<path d="M338.83 474.676C339.772 471.502 343.108 469.692 346.282 470.633C349.456 471.574 351.266 474.91 350.324 478.084L338.395 518.313L326.901 514.904L338.83 474.676Z" fill="#B5D3FF" fill-opacity="0.44"/>
<path d="M377.144 486.037C378.085 482.863 381.421 481.053 384.595 481.995C387.769 482.936 389.579 486.272 388.638 489.446L376.708 529.675L365.214 526.266L377.144 486.037Z" fill="#B5D3FF" fill-opacity="0.44"/>
<path d="M415.457 497.399C416.398 494.225 419.734 492.415 422.908 493.356C426.082 494.297 427.892 497.633 426.951 500.807L415.021 541.036L403.527 537.628L415.457 497.399Z" fill="#B5D3FF" fill-opacity="0.44"/>
<path d="M453.77 508.761C454.711 505.587 458.047 503.777 461.221 504.718C464.395 505.659 466.205 508.995 465.264 512.169L453.334 552.398L441.84 548.989L453.77 508.761Z" fill="#B5D3FF" fill-opacity="0.44"/>
<path d="M492.083 520.122C493.024 516.948 496.36 515.138 499.534 516.079C502.708 517.02 504.518 520.356 503.577 523.53L491.647 563.759L480.153 560.351L492.083 520.122Z" fill="#B5D3FF" fill-opacity="0.44"/>
<path d="M530.398 531.484C531.339 528.31 534.675 526.5 537.849 527.441C541.023 528.383 542.833 531.719 541.892 534.893L529.962 575.122L518.468 571.713L530.398 531.484Z" fill="#B5D3FF" fill-opacity="0.44"/>
<path d="M568.709 542.845C569.65 539.672 572.986 537.862 576.16 538.803C579.334 539.744 581.144 543.08 580.203 546.254L568.273 586.483L556.779 583.074L568.709 542.845Z" fill="#B5D3FF" fill-opacity="0.44"/>
<path d="M607.024 554.207C607.965 551.033 611.301 549.223 614.475 550.165C617.649 551.106 619.459 554.442 618.518 557.616L606.588 597.845L595.094 594.436L607.024 554.207Z" fill="#B5D3FF" fill-opacity="0.44"/>
<path d="M645.336 565.569C646.278 562.395 649.614 560.585 652.788 561.526C655.961 562.467 657.771 565.803 656.83 568.977L644.901 609.206L633.407 605.797L645.336 565.569Z" fill="#B5D3FF" fill-opacity="0.44"/>
<path d="M616.03 112.589C622.573 114.621 627.895 107.092 623.795 101.602C621.962 99.1464 621.918 95.7898 623.687 93.2874C627.642 87.6921 622.126 80.3047 615.638 82.5069C612.736 83.4917 609.53 82.496 607.697 80.0406C603.597 74.5502 594.867 77.5131 594.956 84.3646C594.996 87.4286 593.059 90.1699 590.157 91.1547C583.669 93.3568 583.789 102.575 590.332 104.608C593.259 105.516 595.267 108.206 595.307 111.27C595.396 118.122 604.201 120.856 608.156 115.261C609.924 112.759 613.103 111.68 616.03 112.589Z" fill="white" fill-opacity="0.05"/>
<path d="M833.222 576.712C835.831 583.048 845.023 582.345 846.637 575.686C847.359 572.708 849.916 570.533 852.972 570.3C859.804 569.777 861.976 560.817 856.141 557.224C853.532 555.617 852.254 552.513 852.976 549.535C854.59 542.876 846.74 538.042 841.52 542.48C839.186 544.465 835.838 544.721 833.229 543.114C827.395 539.522 820.371 545.494 822.979 551.83C824.146 554.663 823.355 557.926 821.021 559.911C815.801 564.349 819.31 572.875 826.142 572.352C829.198 572.118 832.056 573.879 833.222 576.712Z" fill="white" fill-opacity="0.05"/>
<path d="M964.346 839.515C961.895 812.533 995.402 798.177 1013.25 818.565C1021.22 827.683 1034.17 830.626 1045.31 825.854C1070.21 815.185 1094.22 842.617 1080.34 865.887C1074.13 876.293 1075.34 889.512 1083.31 898.63C1101.16 919.018 1082.49 950.327 1056.07 944.321C1044.25 941.635 1032.05 946.862 1025.85 957.268C1011.97 980.538 976.424 972.456 973.972 945.474C972.876 933.408 964.135 923.419 952.32 920.733C925.901 914.726 922.603 878.422 947.506 867.753C958.644 862.982 965.442 851.581 964.346 839.515Z" fill="white" fill-opacity="0.1"/>
<path d="M171.172 -55.2296C220.424 -107.719 308.07 -66.518 299.076 4.8966C295.054 36.8342 312.055 67.7294 341.186 81.4237C406.327 112.045 394.226 208.133 323.528 221.648C291.91 227.692 267.781 253.408 263.759 285.345C254.765 356.76 159.641 374.945 124.941 311.883C109.422 283.681 77.5085 268.679 45.8912 274.723C-24.8073 288.238 -71.4967 203.389 -22.2444 150.899C-0.218083 127.425 4.18796 92.4378 -11.3306 64.2357C-46.0313 1.1738 20.2372 -69.4503 85.3775 -38.8287C114.509 -25.1343 149.146 -31.7556 171.172 -55.2296Z" fill="white" fill-opacity="0.12"/>
<path d="M974.561 184.52C999.438 150.096 1053.83 167.618 1053.94 210.089C1053.99 229.083 1066.26 245.886 1084.34 251.71C1124.77 264.732 1124.91 321.878 1084.55 335.104C1066.5 341.02 1054.31 357.884 1054.36 376.878C1054.47 419.35 1000.16 437.146 975.113 402.849C963.91 387.511 944.104 381.131 926.055 387.046C885.695 400.273 851.989 354.126 876.866 319.702C887.992 304.308 887.939 283.5 876.736 268.162C851.685 233.865 885.157 187.548 925.583 200.571C943.662 206.394 963.435 199.914 974.561 184.52Z" fill="white" fill-opacity="0.09"/>
</g>
<defs>
<linearGradient id="paint0_linear_10728_11021" x1="771.5" y1="52.5" x2="211.016" y2="1024" gradientUnits="userSpaceOnUse">
<stop offset="0.0433762" stop-color="#68A4FF"/>
<stop offset="0.803205" stop-color="#ACCDFF"/>
</linearGradient>
<linearGradient id="paint1_linear_10728_11021" x1="793.322" y1="266.532" x2="718.027" y2="312.947" gradientUnits="userSpaceOnUse">
<stop stop-color="#FFE28B"/>
<stop offset="1" stop-color="#FFD865"/>
</linearGradient>
<clipPath id="clip0_10728_11021">
<rect width="1024" height="1024" rx="108" fill="white"/>
</clipPath>
</defs>
</svg>
